<?xml version="1.0" encoding="UTF-8"?>
<svg id="Layer_1" xmlns="http://www.w3.org/2000/svg" version="1.1" viewBox="0 0 248 108">
  <!-- Generator: Adobe Illustrator 29.1.0, SVG Export Plug-In . SVG Version: 2.1.0 Build 142)  -->
  <defs>
    <style>
      .st0 {
        fill: #fff;
      }

      .st1 {
        fill: #1588c9;
      }

      .st2 {
        fill: #3c3c3b;
      }
    </style>
  </defs>
  <g>
    <path class="st0" d="M234.48,6.44H13.52c-4.05,0-7.33,3.13-7.33,6.95v81.46c0,3.82,3.27,6.95,7.33,6.95h220.95c4.03,0,7.33-3.13,7.33-6.95V13.39c0-3.82-3.3-6.95-7.33-6.95Z"/>
    <path class="st2" d="M234.48.59H13.52C6.05.59,0,6.32,0,13.39v81.46c0,7.07,6.05,12.8,13.52,12.8h220.95c7.44,0,13.52-5.73,13.52-12.8V13.39c0-7.07-6.08-12.8-13.52-12.8ZM241.8,94.85c0,3.82-3.3,6.95-7.33,6.95H13.52c-4.05,0-7.33-3.13-7.33-6.95V13.39c0-3.82,3.27-6.95,7.33-6.95h220.95c4.03,0,7.33,3.13,7.33,6.95v81.46Z"/>
  </g>
  <g>
    <path class="st1" d="M67.13,18.07v17.33h-7.71c-3.73,0-6.84.42-9.33,1.27-2.5.85-4.73,2.22-6.71,4.12-3.76,3.63-5.64,8.1-5.64,13.42,0,5,1.81,9.3,5.42,12.89,2.12,2.11,4.48,3.6,7.07,4.46,2.59.86,5.95,1.29,10.09,1.29h6.82v17.33h-10.28c-9.24,0-16.82-1.67-22.74-5.02-7.45-4.26-12.7-10.39-15.76-18.38-1.56-4.05-2.35-8.19-2.35-12.41,0-5.53,1.3-10.9,3.91-16.11,1.97-3.98,4.58-7.47,7.82-10.46,4.73-4.33,10.36-7.17,16.88-8.5,3.84-.81,8.18-1.21,13.02-1.21h9.5Z"/>
    <path class="st1" d="M76.81,18.07h33.03c4.88,0,8.89.41,12.02,1.21,3.13.81,5.83,2.15,8.1,4.01,2.38,1.94,4.14,4.39,5.25,7.37,1.12,2.98,1.68,6.68,1.68,11.12v48.39h-20.96v-47.38c0-2.82-.6-4.75-1.79-5.81-1.19-1.06-3.35-1.58-6.48-1.58h-9.89v54.78h-20.96V18.07Z"/>
    <path class="st1" d="M148.85,18.07h53.98c6.56,0,11.42.41,14.59,1.21,3.17.81,5.94,2.34,8.33,4.6,2.27,2.18,3.88,4.74,4.83,7.66.95,2.92,1.43,6.83,1.43,11.73v46.91h-20.96v-46.17c0-3.38-.62-5.66-1.84-6.84-1.23-1.18-3.58-1.77-7.04-1.77h-32.36v54.78h-20.96V18.07ZM200.09,45.8v44.37h-19.28v-44.37h19.28Z"/>
  </g>
</svg>