<?xml version="1.0" encoding="UTF-8"?>
<svg id="Layer_1" xmlns="http://www.w3.org/2000/svg" version="1.1" viewBox="0 0 512 512">
  <!-- Generator: Adobe Illustrator 29.1.0, SVG Export Plug-In . SVG Version: 2.1.0 Build 142)  -->
  <defs>
    <style>
      .st0 {
        fill: #fff;
      }

      .st1 {
        fill: none;
      }

      .st2 {
        fill: #1588c9;
      }

      .st3 {
        fill: #3c3c3b;
      }
    </style>
  </defs>
  <g>
    <path class="st0" d="M484.46,157.4H27.54c-8.38,0-15.15,6.47-15.15,14.37v168.45c0,7.9,6.77,14.37,15.15,14.37h456.91c8.32,0,15.15-6.47,15.15-14.37v-168.45c0-7.9-6.83-14.37-15.15-14.37ZM138.39,217.28h-15.95c-7.7,0-14.14.87-19.3,2.62-5.16,1.75-9.78,4.59-13.87,8.52-7.78,7.5-11.67,16.75-11.67,27.74,0,10.34,3.74,19.23,11.21,26.65,4.39,4.37,9.26,7.45,14.62,9.23,5.35,1.78,12.31,2.68,20.86,2.68h14.1v35.83h-21.26c-19.11,0-34.78-3.46-47.03-10.38-15.41-8.81-26.27-21.48-32.59-38.01-3.24-8.37-4.85-16.93-4.85-25.67,0-11.43,2.7-22.54,8.09-33.32,4.08-8.23,9.48-15.44,16.18-21.63,9.78-8.96,21.42-14.82,34.9-17.59,7.93-1.67,16.91-2.51,26.93-2.51h19.65v35.83ZM282.64,330.55h-43.33v-97.98c0-5.83-1.23-9.83-3.7-12.02-2.47-2.18-6.93-3.28-13.41-3.28h-20.45v113.28h-43.33v-149.1h68.29c10.09,0,18.37.84,24.85,2.51,6.47,1.68,12.06,4.44,16.76,8.3,4.93,4.01,8.55,9.09,10.86,15.24,2.31,6.15,3.47,13.82,3.47,22.99v100.06ZM413.36,330.55h-39.87v-91.76h39.87v91.76ZM479.34,330.55h-43.33v-95.47c0-6.99-1.27-11.7-3.81-14.15-2.54-2.44-7.4-3.66-14.56-3.66h-66.91v113.28h-43.33v-149.1h111.63c13.56,0,23.61.84,30.16,2.51,6.55,1.68,12.29,4.84,17.22,9.5,4.7,4.52,8.03,9.8,9.99,15.84,1.97,6.05,2.95,14.13,2.95,24.25v97Z"/>
    <path class="st2" d="M91.82,183.96c-13.48,2.77-25.12,8.63-34.9,17.59-6.7,6.19-12.1,13.4-16.18,21.63-5.39,10.78-8.09,21.88-8.09,33.32,0,8.74,1.62,17.3,4.85,25.67,6.32,16.53,17.18,29.2,32.59,38.01,12.25,6.92,27.93,10.38,47.03,10.38h21.26v-35.83h-14.1c-8.55,0-15.51-.89-20.86-2.68-5.36-1.78-10.23-4.86-14.62-9.23-7.47-7.43-11.21-16.31-11.21-26.65,0-10.99,3.89-20.24,11.67-27.74,4.08-3.93,8.7-6.77,13.87-8.52,5.16-1.75,11.59-2.62,19.3-2.62h15.95v-35.83h-19.65c-10.02,0-18.99.84-26.93,2.51Z"/>
    <path class="st2" d="M268.31,192.26c-4.7-3.86-10.28-6.63-16.76-8.3-6.47-1.67-14.75-2.51-24.85-2.51h-68.29v149.1h43.33v-113.28h20.45c6.47,0,10.94,1.09,13.41,3.28,2.46,2.18,3.7,6.19,3.7,12.02v97.98h43.33v-100.06c0-9.18-1.16-16.84-3.47-22.99-2.31-6.15-5.93-11.23-10.86-15.24Z"/>
    <path class="st2" d="M466.4,193.46c-4.93-4.66-10.67-7.83-17.22-9.5-6.55-1.67-16.6-2.51-30.16-2.51h-111.63v149.1h43.33v-113.28h66.91c7.16,0,12.02,1.22,14.56,3.66,2.54,2.44,3.81,7.15,3.81,14.15v95.47h43.33v-97c0-10.12-.98-18.2-2.95-24.25-1.96-6.04-5.3-11.32-9.99-15.84Z"/>
    <rect class="st2" x="373.49" y="238.8" width="39.87" height="91.76"/>
    <path class="st3" d="M-.42,171.77v168.45c0,1.56.15,3.08.42,4.56v-177.58c-.27,1.48-.42,3.01-.42,4.56Z"/>
    <path class="st3" d="M512.42,171.77c0-1.55-.15-3.07-.42-4.55v177.56c.27-1.48.42-3,.42-4.55v-168.45Z"/>
    <path class="st3" d="M484.46,145.3H27.54c-13.8,0-25.26,9.47-27.54,21.91v177.58c2.29,12.44,13.74,21.91,27.54,21.91h456.91c13.75,0,25.25-9.47,27.54-21.92v-177.56c-2.29-12.44-13.79-21.91-27.54-21.91ZM499.61,340.23c0,7.9-6.83,14.37-15.15,14.37H27.54c-8.38,0-15.15-6.47-15.15-14.37v-168.45c0-7.9,6.77-14.37,15.15-14.37h456.91c8.32,0,15.15,6.47,15.15,14.37v168.45Z"/>
  </g>
  <rect class="st1" width="512" height="512"/>
</svg>